HIERARCHY
ROOT Hips
{
	OFFSET 0.000000 0.000000 0.000000
	CHANNELS 6 Xposition Yposition Zposition Zrotation Yrotation Xrotation 
	JOINT LHipJoint
	{
		OFFSET 0.000000 0.000000 0.000000
		CHANNELS 3 Zrotation Yrotation Xrotation
		JOINT LeftUpLeg
		{
			OFFSET 1.363060 -1.794630 0.839290
			CHANNELS 3 Zrotation Yrotation Xrotation
			JOINT LeftLeg
			{
				OFFSET 2.448110 -6.726130 0.000000
				CHANNELS 3 Zrotation Yrotation Xrotation
				JOINT LeftFoot
				{
					OFFSET 2.562200 -7.039590 0.000000
					CHANNELS 3 Zrotation Yrotation Xrotation
					JOINT LeftToeBase
					{
						OFFSET 0.157640 -0.433110 2.322550
						CHANNELS 3 Zrotation Yrotation Xrotation
						End Site
						{
							OFFSET 0.000000 0.000000 0.000000
						}
					}
				}
			}
		}
	}
	JOINT RHipJoint
	{
		OFFSET 0.000000 0.000000 0.000000
		CHANNELS 3 Zrotation Yrotation Xrotation
		JOINT RightUpLeg
		{
			OFFSET -1.305520 -1.794630 0.839290
			CHANNELS 3 Zrotation Yrotation Xrotation
			JOINT RightLeg
			{
				OFFSET -2.542530 -6.985550 0.000000
				CHANNELS 3 Zrotation Yrotation Xrotation
				JOINT RightFoot
				{
					OFFSET -2.568260 -7.056230 0.000000
					CHANNELS 3 Zrotation Yrotation Xrotation
					JOINT RightToeBase
					{
						OFFSET -0.164730 -0.452590 2.363150
						CHANNELS 3 Zrotation Yrotation Xrotation
						End Site
						{
							OFFSET 0.000000 0.000000 0.000000
						}
					}
				}
			}
		}
	}
	JOINT LowerBack
	{
		OFFSET 0.000000 0.000000 0.000000
		CHANNELS 3 Zrotation Yrotation Xrotation
		JOINT Spine
		{
			OFFSET 0.028270 2.035590 -0.193380
			CHANNELS 3 Zrotation Yrotation Xrotation
			JOINT Spine1
			{
				OFFSET 0.056720 2.048850 -0.042750
				CHANNELS 3 Zrotation Yrotation Xrotation
				JOINT Neck
				{
					OFFSET 0.000000 0.000000 0.000000
					CHANNELS 3 Zrotation Yrotation Xrotation
					JOINT Neck1
					{
						OFFSET -0.054170 1.746240 0.172020
						CHANNELS 3 Zrotation Yrotation Xrotation
						JOINT Head
						{
							OFFSET 0.104070 1.761360 -0.123970
							CHANNELS 3 Zrotation Yrotation Xrotation
							End Site
							{
								OFFSET 0.000000 0.000000 0.000000
							}
						}
					}
				}
				JOINT LeftShoulder
				{
					OFFSET 0.000000 0.000000 0.000000
					CHANNELS 3 Zrotation Yrotation Xrotation
					JOINT LeftArm
					{
						OFFSET 3.362410 1.200890 -0.311210
						CHANNELS 3 Zrotation Yrotation Xrotation
						JOINT LeftForeArm
						{
							OFFSET 4.983000 -0.000000 -0.000000
							CHANNELS 3 Zrotation Yrotation Xrotation
							JOINT LeftHand
							{
								OFFSET 3.483560 -0.000000 -0.000000
								CHANNELS 3 Zrotation Yrotation Xrotation
								JOINT LeftFingerBase
								{
									OFFSET 0.000000 0.000000 0.000000
									CHANNELS 3 Zrotation Yrotation Xrotation
									JOINT LeftHandIndex1
									{
										OFFSET 0.715260 -0.000000 -0.000000
										CHANNELS 3 Zrotation Yrotation Xrotation
										End Site
										{
											OFFSET 0.000000 0.000000 0.000000
										}
									}
								}
								JOINT LThumb
								{
									OFFSET 0.000000 0.000000 0.000000
									CHANNELS 3 Zrotation Yrotation Xrotation
									End Site
									{
										OFFSET 0.000000 0.000000 0.000000
									}
								}
							}
						}
					}
				}
				JOINT RightShoulder
				{
					OFFSET 0.000000 0.000000 0.000000
					CHANNELS 3 Zrotation Yrotation Xrotation
					JOINT RightArm
					{
						OFFSET -3.136600 1.374050 -0.404650
						CHANNELS 3 Zrotation Yrotation Xrotation
						JOINT RightForeArm
						{
							OFFSET -5.241900 -0.000000 -0.000000
							CHANNELS 3 Zrotation Yrotation Xrotation
							JOINT RightHand
							{
								OFFSET -3.444170 -0.000000 -0.000000
								CHANNELS 3 Zrotation Yrotation Xrotation
								JOINT RightFingerBase
								{
									OFFSET 0.000000 0.000000 0.000000
									CHANNELS 3 Zrotation Yrotation Xrotation
									JOINT RightHandIndex1
									{
										OFFSET -0.622530 -0.000000 -0.000000
										CHANNELS 3 Zrotation Yrotation Xrotation
										End Site
										{
											OFFSET 0.000000 0.000000 0.000000
										}
									}
								}
								JOINT RThumb
								{
									OFFSET 0.000000 0.000000 0.000000
									CHANNELS 3 Zrotation Yrotation Xrotation
									End Site
									{
										OFFSET 0.000000 0.000000 0.000000
									}
								}
							}
						}
					}
				}
			}
		}
	}
}
MOTION
Frames: 5
Frame Time: 0.008333
-6.985923 17.069814 -7.684127 -177.628639 -42.366730 -173.525841 9.907563 2.343289 -3.293737 -26.608531 -2.446933 -5.381312 6.441267 16.091246 51.933758 -0.080288 6.736748 14.459654 0.014300 0.772200 2.122100 -14.634511 -3.391602 -2.996306 40.752084 5.232620 -16.833161 1.695433 -8.360930 19.611702 0.398369 -7.972324 -10.732636 -0.059900 -1.579500 4.344800 4.169595 -3.289249 -3.391447 1.882708 -5.454435 -5.198343 -0.750936 -3.013293 0.010521 0.055501 -1.689341 -18.286685 6.137130 -5.410722 17.535820 -1.662600 -2.079100 16.212600 14.358169 -9.700135 2.266495 -101.700741 5.060282 14.285106 23.387436 -33.557748 -4.456153 -0.560061 4.286993 19.300267 0.026314 16.028241 0.427100 -7.125000 0.000000 0.000000 -22.145000 41.078200 2.268000 -13.134649 12.078501 3.058547 94.193220 -7.495959 -2.696982 -17.896994 26.703125 -2.853500 -1.055249 -2.639621 19.193721 -8.984759 -8.309882 0.847700 7.125000 0.000000 0.000000 14.734400 -35.156400 3.663300 
-7.043153 17.077264 -7.796858 -177.337732 -42.395682 -173.816569 9.862828 2.290146 -3.221682 -26.077699 -3.019692 -6.997407 7.158175 16.737702 54.436551 -0.081052 7.510586 15.088813 0.021200 0.940300 2.584400 -14.655484 -3.414747 -3.097577 41.226391 4.747486 -15.920093 1.746082 -8.070720 19.045524 0.382328 -7.842717 -10.754261 -0.071900 -1.730200 4.760600 4.357549 -3.268879 -3.144940 1.886133 -5.425357 -5.190974 -0.689133 -3.004116 -0.035494 0.008525 -1.847984 -18.347628 6.131400 -5.614910 17.460563 -1.656800 -2.163900 16.170600 14.345847 -9.693589 2.261876 -101.845412 5.385062 13.881036 23.125283 -33.280651 -4.358438 -0.622525 4.294164 19.889232 -0.500421 15.972193 0.336500 -7.125000 0.000000 0.000000 -22.496300 41.023800 2.340600 -13.077707 12.075047 3.093143 93.948076 -7.241507 -1.242984 -18.657854 27.509233 -3.035686 -1.011119 -2.691145 17.770036 -9.128770 -8.375344 0.865700 7.125000 0.000000 0.000000 14.633500 -35.194700 3.622700 
-7.100814 17.080396 -7.906783 -177.108003 -42.371664 -174.063424 9.828657 2.234745 -3.158813 -25.620951 -3.536166 -8.563991 7.829274 17.316013 56.739707 -0.129165 8.045135 15.004644 0.025000 1.020900 2.806200 -14.670744 -3.430615 -3.193341 41.620482 4.310175 -15.091394 1.780936 -7.835133 18.612876 0.358706 -7.666828 -10.836257 -0.083400 -1.863100 5.127500 4.513640 -3.231371 -2.897890 1.881605 -5.366106 -5.181355 -0.644752 -2.979253 -0.078295 -0.035601 -2.009810 -18.402237 6.127482 -5.822851 17.379861 -1.649400 -2.250100 16.120100 14.326595 -9.686767 2.261072 -101.972301 5.703147 13.474811 22.904306 -33.036794 -4.277070 -0.671531 4.299597 20.455159 -0.942354 15.917788 0.260900 -7.125000 0.000000 0.000000 -22.788200 40.974700 2.404200 -13.023590 12.069949 3.124677 93.692362 -6.979864 0.141633 -19.403160 28.286762 -3.223347 -0.992981 -2.716022 16.490775 -9.406820 -8.316115 0.876700 7.125000 0.000000 0.000000 14.425100 -35.132400 3.590800 
-7.159232 17.083203 -8.014872 -176.939481 -42.289165 -174.256147 9.805018 2.178015 -3.105563 -25.238617 -3.995917 -10.082126 8.443501 17.828896 58.821501 -0.221736 8.393807 14.286515 0.029500 1.108200 3.046500 -14.680464 -3.439572 -3.282833 41.939393 3.929282 -14.342650 1.802216 -7.650280 18.301968 0.328865 -7.455122 -10.968445 -0.093600 -1.973500 5.432500 4.637312 -3.171101 -2.667320 1.867922 -5.271213 -5.169021 -0.622217 -2.936261 -0.108848 -0.079297 -2.179578 -18.456100 6.129540 -6.041592 17.296889 -1.635900 -2.340700 16.065800 14.298542 -9.677500 2.264447 -102.073704 6.016914 13.081250 22.729240 -32.828920 -4.211931 -0.705490 4.300224 20.975457 -1.284343 15.853236 0.202200 -7.125000 0.000000 0.000000 -23.008100 40.921700 2.462600 -12.974368 12.061690 3.152291 93.434044 -6.705714 1.448491 -20.130053 29.039154 -3.416784 -0.997379 -2.721456 15.344557 -9.795186 -8.159170 0.881200 7.125000 0.000000 0.000000 14.128500 -34.990200 3.563400 
-7.217974 17.082448 -8.120801 -176.799959 -42.145234 -174.399966 9.790970 2.118830 -3.061507 -24.900544 -4.409838 -11.586753 9.001349 18.287285 60.692939 -0.342404 8.605180 13.085809 0.036900 1.240500 3.410800 -14.687918 -3.441852 -3.363854 42.217112 3.621352 -13.676028 1.814926 -7.509259 18.087806 0.295346 -7.227020 -11.135610 -0.103800 -2.077400 5.719500 4.754016 -3.085124 -2.468441 1.846482 -5.141444 -5.155604 -0.625912 -2.876490 -0.130008 -0.123719 -2.356335 -18.505975 6.138558 -6.271967 17.216746 -1.614100 -2.436700 16.012500 14.262165 -9.666098 2.272045 -102.151321 6.331881 12.695688 22.599508 -32.655844 -4.162624 -0.723540 4.297012 21.425743 -1.516487 15.788248 0.162400 -7.125000 0.000000 0.000000 -23.151800 40.871600 2.510600 -12.930654 12.050221 3.174617 93.170865 -6.414570 2.676554 -20.833025 29.762419 -3.612388 -1.008835 -2.717787 14.304793 -10.201955 -7.956954 0.878700 7.125000 0.000000 0.000000 13.814400 -34.810900 3.542200 
